<?xml version="1.0" encoding="UTF-8" standalone="no"?>
<svg xmlns="http://www.w3.org/2000/svg" width="30" height="30" viewBox="0 0 30 30">
  <!-- Potion bottle shape -->
  <path d="M 12,5 L 18,5 L 18,10 C 22,12 24,16 24,20 C 24,25 19,28 15,28 C 11,28 6,25 6,20 C 6,16 8,12 12,10 Z" fill="#ff3333" stroke="#990000" stroke-width="1" />
  
  <!-- Bottle neck -->
  <rect x="12" y="3" width="6" height="2" fill="#ff3333" stroke="#990000" stroke-width="1" />
  
  <!-- Bottle cap -->
  <rect x="11" y="1" width="8" height="2" fill="#aa4400" stroke="#662200" stroke-width="1" />
  
  <!-- Potion liquid shine -->
  <ellipse cx="10" cy="18" rx="2" ry="3" fill="#ff9999" opacity="0.7" />
  
  <!-- Health cross symbol -->
  <path d="M 13,14 L 13,18 L 17,18 L 17,22 L 13,22 L 13,26 L 17,26 L 17,22 L 21,22 L 21,18 L 17,18 L 17,14 Z" fill="#ffffff" opacity="0.3" />
</svg>