<svg xmlns="http://www.w3.org/2000/svg" viewBox="0 0 800 600">
  <!-- Dark background -->
  <rect width="800" height="600" fill="#0a0b1a"/>
  
  <!-- Street base -->
  <rect x="250" y="0" width="300" height="600" fill="#1a1a1a"/>
  
  <!-- Street markings -->
  <rect x="395" y="30" width="10" height="60" fill="#ffcc00"/>
  <rect x="395" y="120" width="10" height="60" fill="#ffcc00"/>
  <rect x="395" y="210" width="10" height="60" fill="#ffcc00"/>
  <rect x="395" y="300" width="10" height="60" fill="#ffcc00"/>
  <rect x="395" y="390" width="10" height="60" fill="#ffcc00"/>
  <rect x="395" y="480" width="10" height="60" fill="#ffcc00"/>
  <rect x="395" y="570" width="10" height="30" fill="#ffcc00"/>
  
  <!-- Street borders -->
  <rect x="250" y="0" width="5" height="600" fill="#444444"/>
  <rect x="545" y="0" width="5" height="600" fill="#444444"/>
  
  <!-- Sidewalks -->
  <rect x="100" y="0" width="150" height="600" fill="#262626"/>
  <rect x="550" y="0" width="150" height="600" fill="#262626"/>
  
  <!-- Sidewalk details -->
  <line x1="150" y1="0" x2="150" y2="600" stroke="#333333" stroke-width="1"/>
  <line x1="200" y1="0" x2="200" y2="600" stroke="#333333" stroke-width="1"/>
  <line x1="600" y1="0" x2="600" y2="600" stroke="#333333" stroke-width="1"/>
  <line x1="650" y1="0" x2="650" y2="600" stroke="#333333" stroke-width="1"/>
  
  <!-- Buildings - Left side -->
  <rect x="0" y="0" width="100" height="200" fill="#1c1c2c"/>
  <rect x="0" y="200" width="100" height="200" fill="#232342"/>
  <rect x="0" y="400" width="100" height="200" fill="#1c1c2c"/>
  
  <!-- Buildings - Right side -->
  <rect x="700" y="0" width="100" height="250" fill="#232342"/>
  <rect x="700" y="250" width="100" height="350" fill="#1c1c2c"/>
  
  <!-- Building windows - Left -->
  <g fill="#00ffff" opacity="0.8">
    <rect x="20" y="30" width="15" height="20"/>
    <rect x="50" y="30" width="15" height="20"/>
    <rect x="20" y="70" width="15" height="20"/>
    <rect x="50" y="70" width="15" height="20"/>
    <rect x="20" y="110" width="15" height="20"/>
    <rect x="50" y="110" width="15" height="20"/>
    <rect x="20" y="150" width="15" height="20"/>
    <rect x="50" y="150" width="15" height="20"/>
    
    <rect x="20" y="230" width="15" height="20"/>
    <rect x="50" y="230" width="15" height="20"/>
    <rect x="20" y="270" width="15" height="20"/>
    <rect x="50" y="270" width="15" height="20"/>
    <rect x="20" y="310" width="15" height="20"/>
    <rect x="50" y="310" width="15" height="20"/>
    <rect x="20" y="350" width="15" height="20"/>
    <rect x="50" y="350" width="15" height="20"/>
    
    <rect x="20" y="430" width="15" height="20"/>
    <rect x="50" y="430" width="15" height="20"/>
    <rect x="20" y="470" width="15" height="20"/>
    <rect x="50" y="470" width="15" height="20"/>
    <rect x="20" y="510" width="15" height="20"/>
    <rect x="50" y="510" width="15" height="20"/>
    <rect x="20" y="550" width="15" height="20"/>
    <rect x="50" y="550" width="15" height="20"/>
  </g>
  
  <!-- Building windows - Right -->
  <g fill="#ff00ff" opacity="0.8">
    <rect x="720" y="30" width="15" height="20"/>
    <rect x="750" y="30" width="15" height="20"/>
    <rect x="720" y="70" width="15" height="20"/>
    <rect x="750" y="70" width="15" height="20"/>
    <rect x="720" y="110" width="15" height="20"/>
    <rect x="750" y="110" width="15" height="20"/>
    <rect x="720" y="150" width="15" height="20"/>
    <rect x="750" y="150" width="15" height="20"/>
    <rect x="720" y="190" width="15" height="20"/>
    <rect x="750" y="190" width="15" height="20"/>
    
    <rect x="720" y="280" width="15" height="20"/>
    <rect x="750" y="280" width="15" height="20"/>
    <rect x="720" y="320" width="15" height="20"/>
    <rect x="750" y="320" width="15" height="20"/>
    <rect x="720" y="360" width="15" height="20"/>
    <rect x="750" y="360" width="15" height="20"/>
    <rect x="720" y="400" width="15" height="20"/>
    <rect x="750" y="400" width="15" height="20"/>
    <rect x="720" y="440" width="15" height="20"/>
    <rect x="750" y="440" width="15" height="20"/>
    <rect x="720" y="480" width="15" height="20"/>
    <rect x="750" y="480" width="15" height="20"/>
    <rect x="720" y="520" width="15" height="20"/>
    <rect x="750" y="520" width="15" height="20"/>
    <rect x="720" y="560" width="15" height="20"/>
    <rect x="750" y="560" width="15" height="20"/>
  </g>
  
  <!-- Neon signs -->
  <rect x="120" y="100" width="40" height="20" fill="#000000" stroke="#ff0066" stroke-width="2"/>
  <rect x="620" y="150" width="40" height="20" fill="#000000" stroke="#00ffaa" stroke-width="2"/>
  <rect x="130" y="350" width="40" height="20" fill="#000000" stroke="#ffcc00" stroke-width="2"/>
  <rect x="630" y="400" width="40" height="20" fill="#000000" stroke="#3300ff" stroke-width="2"/>
  
  <!-- Street objects -->
  <!-- Left side -->
  <rect x="180" y="50" width="20" height="20" fill="#333333"/>
  <rect x="185" y="30" width="10" height="20" fill="#444444"/>
  
  <rect x="160" y="200" width="30" height="40" fill="#444444"/>
  
  <rect x="175" y="450" width="25" height="25" fill="#333333"/>
  <rect x="182" y="425" width="10" height="25" fill="#444444"/>
  
  <!-- Right side -->
  <rect x="600" y="100" width="20" height="20" fill="#333333"/>
  <rect x="605" y="80" width="10" height="20" fill="#444444"/>
  
  <rect x="580" y="300" width="30" height="40" fill="#444444"/>
  
  <rect x="595" y="500" width="25" height="25" fill="#333333"/>
  <rect x="602" y="475" width="10" height="25" fill="#444444"/>
  
  <!-- Street drains -->
  <rect x="260" y="100" width="30" height="10" fill="#222222" stroke="#333333" stroke-width="1"/>
  <rect x="510" y="200" width="30" height="10" fill="#222222" stroke="#333333" stroke-width="1"/>
  <rect x="260" y="300" width="30" height="10" fill="#222222" stroke="#333333" stroke-width="1"/>
  <rect x="510" y="400" width="30" height="10" fill="#222222" stroke="#333333" stroke-width="1"/>
  <rect x="260" y="500" width="30" height="10" fill="#222222" stroke="#333333" stroke-width="1"/>
  
  <!-- Puddles with neon reflections -->
  <ellipse cx="300" cy="150" rx="25" ry="10" fill="#151525" opacity="0.7"/>
  <ellipse cx="300" cy="150" rx="20" ry="8" fill="none" stroke="#00ffff" stroke-width="0.5" opacity="0.3"/>
  
  <ellipse cx="500" cy="350" rx="30" ry="12" fill="#151525" opacity="0.7"/>
  <ellipse cx="500" cy="350" rx="25" ry="10" fill="none" stroke="#ff00ff" stroke-width="0.5" opacity="0.3"/>
  
  <ellipse cx="350" cy="550" rx="25" ry="10" fill="#151525" opacity="0.7"/>
  <ellipse cx="350" cy="550" rx="20" ry="8" fill="none" stroke="#ffcc00" stroke-width="0.5" opacity="0.3"/>
  
  <!-- Manholes -->
  <circle cx="350" cy="200" r="15" fill="#222222" stroke="#333333" stroke-width="1"/>
  <circle cx="350" cy="200" r="10" fill="#222222" stroke="#333333" stroke-width="0.5"/>
  
  <circle cx="450" cy="430" r="15" fill="#222222" stroke="#333333" stroke-width="1"/>
  <circle cx="450" cy="430" r="10" fill="#222222" stroke="#333333" stroke-width="0.5"/>
  
  <!-- Neon glow effect -->
  <rect x="0" y="0" width="800" height="600" fill="url(#neonGlow)" opacity="0.15"/>
  
  <!-- Definitions -->
  <defs>
    <radialGradient id="neonGlow" cx="50%" cy="50%" r="50%" fx="50%" fy="50%">
      <stop offset="0%" stop-color="#00ffff" stop-opacity="0.5"/>
      <stop offset="40%" stop-color="#ff00ff" stop-opacity="0.3"/>
      <stop offset="100%" stop-color="#000000" stop-opacity="0"/>
    </radialGradient>
  </defs>
</svg>