<svg xmlns="http://www.w3.org/2000/svg" viewBox="0 0 100 100" width="100" height="100">
  <!-- Tank Body/Hull -->
  <rect x="15" y="40" width="70" height="30" rx="5" fill="#444444" stroke="#ff00ff" stroke-width="2"/>
  
  <!-- Tank Turret -->
  <circle cx="50" cy="40" r="15" fill="#333333" stroke="#ff00ff" stroke-width="2"/>
  
  <!-- Tank Cannon -->
  <rect x="50" y="25" width="40" height="8" rx="2" fill="#222222" stroke="#ff00ff" stroke-width="1"/>
  
  <!-- Tracks -->
  <rect x="10" y="65" width="80" height="10" rx="5" fill="#222222" stroke="#ff00ff" stroke-width="1"/>
  <rect x="10" y="35" width="80" height="10" rx="5" fill="#222222" stroke="#ff00ff" stroke-width="1"/>
  
  <!-- Track Details -->
  <path d="M15 65 L15 75 M25 65 L25 75 M35 65 L35 75 M45 65 L45 75 M55 65 L55 75 M65 65 L65 75 M75 65 L75 75 M85 65 L85 75" stroke="#333333" stroke-width="1"/>
  <path d="M15 35 L15 45 M25 35 L25 45 M35 35 L35 45 M45 35 L45 45 M55 35 L55 45 M65 35 L65 45 M75 35 L75 45 M85 35 L85 45" stroke="#333333" stroke-width="1"/>
  
  <!-- Cybernetic Enhancements -->
  <circle cx="30" cy="50" r="5" fill="#ff00ff" opacity="0.7">
    <animate attributeName="opacity" values="0.4;0.8;0.4" dur="1.5s" repeatCount="indefinite" />
  </circle>
  <circle cx="70" cy="50" r="5" fill="#ff00ff" opacity="0.7">
    <animate attributeName="opacity" values="0.4;0.8;0.4" dur="1.5s" repeatCount="indefinite" />
  </circle>
  
  <!-- Sensor Array -->
  <circle cx="50" cy="35" r="3" fill="#ff0000">
    <animate attributeName="fill" values="#ff0000;#ff00ff;#ff0000" dur="1s" repeatCount="indefinite" />
  </circle>
  
  <!-- Weapon Systems -->
  <rect x="20" y="45" width="5" height="10" fill="#333333" stroke="#ff00ff" stroke-width="1"/>
  <rect x="75" y="45" width="5" height="10" fill="#333333" stroke="#ff00ff" stroke-width="1"/>
  
  <!-- Energy Core -->
  <circle cx="50" cy="55" r="8" fill="#ff00ff" opacity="0.5">
    <animate attributeName="r" values="6;8;6" dur="2s" repeatCount="indefinite" />
  </circle>
</svg>