<svg xmlns="http://www.w3.org/2000/svg" viewBox="0 0 200 60" width="200" height="60">
  <!-- GCash Logo -->
  <g fill="#00b2e3">
    <!-- G -->
    <path d="M30,10 C18.95,10 10,18.95 10,30 C10,41.05 18.95,50 30,50 C41.05,50 50,41.05 50,30 C50,18.95 41.05,10 30,10 Z M30,15 C38.28,15 45,21.72 45,30 C45,38.28 38.28,45 30,45 C21.72,45 15,38.28 15,30 C15,21.72 21.72,15 30,15 Z M38,28 L32,28 L32,25 L38,25 L38,28 Z M38,35 L32,35 L32,32 L38,32 L38,35 Z"/>
    <!-- Cash -->
    <path d="M60,20 L68,20 L68,40 L60,40 L60,38 C58.5,39.5 56.5,40 54,40 C48.5,40 44,35.5 44,30 C44,24.5 48.5,20 54,20 C56.5,20 58.5,20.5 60,22 L60,20 Z M54,34 C57,34 60,32 60,30 C60,28 57,26 54,26 C51,26 48,28 48,30 C48,32 51,34 54,34 Z"/>
    <path d="M70,20 L78,20 L78,22 C79.5,20.5 81.5,20 84,20 C89.5,20 94,24.5 94,30 C94,35.5 89.5,40 84,40 C81.5,40 79.5,39.5 78,38 L78,50 L70,50 L70,20 Z M84,34 C87,34 90,32 90,30 C90,28 87,26 84,26 C81,26 78,28 78,30 C78,32 81,34 84,34 Z"/>
    <path d="M96,20 L104,20 L104,22 C105.5,20.5 107.5,20 110,20 C115.5,20 120,24.5 120,30 C120,35.5 115.5,40 110,40 C107.5,40 105.5,39.5 104,38 L104,40 L96,40 L96,20 Z M110,34 C113,34 116,32 116,30 C116,28 113,26 110,26 C107,26 104,28 104,30 C104,32 107,34 110,34 Z"/>
    <path d="M122,20 L130,20 L130,22 C131.5,20.5 133.5,20 136,20 C141.5,20 146,24.5 146,30 C146,35.5 141.5,40 136,40 C133.5,40 131.5,39.5 130,38 L130,40 L122,40 L122,20 Z M136,34 C139,34 142,32 142,30 C142,28 139,26 136,26 C133,26 130,28 130,30 C130,32 133,34 136,34 Z"/>
  </g>
</svg>