<svg xmlns="http://www.w3.org/2000/svg" viewBox="0 0 100 100" width="80" height="80">
  <!-- Blue circle background -->
  <circle cx="50" cy="50" r="40" fill="#0078FF"/>
  
  <!-- White border -->
  <circle cx="50" cy="50" r="35" fill="white"/>
  
  <!-- Blue G -->
  <path d="M50,25 C36.2,25 25,36.2 25,50 C25,63.8 36.2,75 50,75 C63.8,75 75,63.8 75,50 C75,36.2 63.8,25 50,25 Z M50,30 C61,30 70,39 70,50 C70,61 61,70 50,70 C39,70 30,61 30,50 C30,39 39,30 50,30 Z M60,48 L55,48 L55,45 L60,45 L60,48 Z M60,55 L55,55 L55,52 L60,52 L60,55 Z" fill="#0078FF"/>
  
  <!-- Sound waves -->
  <path d="M75,40 Q80,50 75,60" stroke="#0078FF" stroke-width="3" fill="none" opacity="0.7"/>
  <path d="M80,35 Q88,50 80,65" stroke="#0078FF" stroke-width="3" fill="none" opacity="0.5"/>
</svg>